<mxfile host="app.diagrams.net" modified="2023-04-12T00:39:34.871Z" agent="Mozilla/5.0 (Macintosh; Intel Mac OS X 10_15_7) AppleWebKit/605.1.15 (KHTML, like Gecko) Version/16.4 Safari/605.1.15" etag="HCwmXH5iX8JdkVe3LoGZ" version="21.1.6" type="github">
  <diagram name="Página-1" id="PMkA30IGHcS1QguNRC-0">
    <mxGraphModel dx="1266" dy="722" grid="1" gridSize="10" guides="1" tooltips="1" connect="1" arrows="1" fold="1" page="1" pageScale="1" pageWidth="827" pageHeight="1169" math="0" shadow="0">
      <root>
        <mxCell id="0" />
        <mxCell id="1" parent="0" />
        <mxCell id="HpWv4QzWWLvA39jW5zzy-3" style="edgeStyle=orthogonalEdgeStyle;rounded=0;orthogonalLoop=1;jettySize=auto;html=1;exitX=0.5;exitY=1;exitDx=0;exitDy=0;" parent="1" source="HpWv4QzWWLvA39jW5zzy-1" edge="1">
          <mxGeometry relative="1" as="geometry">
            <mxPoint x="400" y="80" as="targetPoint" />
          </mxGeometry>
        </mxCell>
        <mxCell id="HpWv4QzWWLvA39jW5zzy-1" value="&lt;b&gt;Início&lt;/b&gt;" style="shape=process;whiteSpace=wrap;html=1;backgroundOutline=1;" parent="1" vertex="1">
          <mxGeometry x="340" width="120" height="60" as="geometry" />
        </mxCell>
        <mxCell id="HpWv4QzWWLvA39jW5zzy-2" value="&lt;b&gt;Fim&lt;/b&gt;" style="shape=process;whiteSpace=wrap;html=1;backgroundOutline=1;" parent="1" vertex="1">
          <mxGeometry x="450" y="760" width="120" height="60" as="geometry" />
        </mxCell>
        <mxCell id="HpWv4QzWWLvA39jW5zzy-5" style="edgeStyle=orthogonalEdgeStyle;rounded=0;orthogonalLoop=1;jettySize=auto;html=1;exitX=0.5;exitY=1;exitDx=0;exitDy=0;" parent="1" edge="1">
          <mxGeometry relative="1" as="geometry">
            <mxPoint x="400" y="150" as="targetPoint" />
            <mxPoint x="400" y="140" as="sourcePoint" />
          </mxGeometry>
        </mxCell>
        <mxCell id="HpWv4QzWWLvA39jW5zzy-7" style="edgeStyle=orthogonalEdgeStyle;rounded=0;orthogonalLoop=1;jettySize=auto;html=1;exitX=0.5;exitY=1;exitDx=0;exitDy=0;" parent="1" target="HpWv4QzWWLvA39jW5zzy-8" edge="1">
          <mxGeometry relative="1" as="geometry">
            <mxPoint x="400" y="260" as="targetPoint" />
            <mxPoint x="400" y="210" as="sourcePoint" />
          </mxGeometry>
        </mxCell>
        <mxCell id="HpWv4QzWWLvA39jW5zzy-9" style="edgeStyle=orthogonalEdgeStyle;rounded=0;orthogonalLoop=1;jettySize=auto;html=1;exitX=0.5;exitY=1;exitDx=0;exitDy=0;" parent="1" source="HpWv4QzWWLvA39jW5zzy-8" edge="1">
          <mxGeometry relative="1" as="geometry">
            <mxPoint x="400" y="330" as="targetPoint" />
          </mxGeometry>
        </mxCell>
        <mxCell id="HpWv4QzWWLvA39jW5zzy-8" value="leia(valor1, valor2)" style="rounded=1;whiteSpace=wrap;html=1;" parent="1" vertex="1">
          <mxGeometry x="340" y="250" width="120" height="60" as="geometry" />
        </mxCell>
        <mxCell id="HpWv4QzWWLvA39jW5zzy-11" style="edgeStyle=orthogonalEdgeStyle;rounded=0;orthogonalLoop=1;jettySize=auto;html=1;exitX=1;exitY=0.5;exitDx=0;exitDy=0;" parent="1" source="HbhPbqgNAZLozmaxHgkh-6" edge="1">
          <mxGeometry relative="1" as="geometry">
            <mxPoint x="640" y="360" as="targetPoint" />
            <mxPoint x="460" y="360" as="sourcePoint" />
            <Array as="points">
              <mxPoint x="620" y="360" />
              <mxPoint x="620" y="360" />
            </Array>
          </mxGeometry>
        </mxCell>
        <mxCell id="HpWv4QzWWLvA39jW5zzy-14" value="Não" style="text;html=1;align=center;verticalAlign=middle;resizable=0;points=[];autosize=1;strokeColor=none;fillColor=none;" parent="1" vertex="1">
          <mxGeometry x="490" y="360" width="50" height="30" as="geometry" />
        </mxCell>
        <mxCell id="HbhPbqgNAZLozmaxHgkh-2" value="valor1,valor2,resto" style="ellipse;shape=cloud;whiteSpace=wrap;html=1;" vertex="1" parent="1">
          <mxGeometry x="320" y="70" width="150" height="70" as="geometry" />
        </mxCell>
        <mxCell id="HbhPbqgNAZLozmaxHgkh-4" value="Olá! Vamos verificar se algum dos valores é divisor de outro. Digite dois valores:" style="shape=document;whiteSpace=wrap;html=1;boundedLbl=1;" vertex="1" parent="1">
          <mxGeometry x="345" y="150" width="120" height="80" as="geometry" />
        </mxCell>
        <mxCell id="HbhPbqgNAZLozmaxHgkh-9" style="edgeStyle=orthogonalEdgeStyle;rounded=0;orthogonalLoop=1;jettySize=auto;html=1;exitX=0.5;exitY=1;exitDx=0;exitDy=0;" edge="1" parent="1" source="HbhPbqgNAZLozmaxHgkh-5">
          <mxGeometry relative="1" as="geometry">
            <mxPoint x="400" y="460" as="targetPoint" />
          </mxGeometry>
        </mxCell>
        <mxCell id="HbhPbqgNAZLozmaxHgkh-5" value="valor 1 &amp;gt; valor 2" style="rhombus;whiteSpace=wrap;html=1;" vertex="1" parent="1">
          <mxGeometry x="340" y="320" width="120" height="80" as="geometry" />
        </mxCell>
        <mxCell id="HbhPbqgNAZLozmaxHgkh-7" value="" style="edgeStyle=orthogonalEdgeStyle;rounded=0;orthogonalLoop=1;jettySize=auto;html=1;exitX=1;exitY=0.5;exitDx=0;exitDy=0;" edge="1" parent="1" target="HbhPbqgNAZLozmaxHgkh-6">
          <mxGeometry relative="1" as="geometry">
            <mxPoint x="640" y="360" as="targetPoint" />
            <mxPoint x="460" y="360" as="sourcePoint" />
            <Array as="points" />
          </mxGeometry>
        </mxCell>
        <mxCell id="HbhPbqgNAZLozmaxHgkh-10" style="edgeStyle=orthogonalEdgeStyle;rounded=0;orthogonalLoop=1;jettySize=auto;html=1;exitX=0.5;exitY=1;exitDx=0;exitDy=0;" edge="1" parent="1" source="HbhPbqgNAZLozmaxHgkh-6">
          <mxGeometry relative="1" as="geometry">
            <mxPoint x="620" y="460" as="targetPoint" />
          </mxGeometry>
        </mxCell>
        <mxCell id="HbhPbqgNAZLozmaxHgkh-6" value="valor 2 &amp;gt; valor 1" style="rhombus;whiteSpace=wrap;html=1;" vertex="1" parent="1">
          <mxGeometry x="560" y="320" width="120" height="80" as="geometry" />
        </mxCell>
        <mxCell id="HbhPbqgNAZLozmaxHgkh-11" value="Sim" style="text;html=1;align=center;verticalAlign=middle;resizable=0;points=[];autosize=1;strokeColor=none;fillColor=none;" vertex="1" parent="1">
          <mxGeometry x="410" y="410" width="40" height="30" as="geometry" />
        </mxCell>
        <mxCell id="HbhPbqgNAZLozmaxHgkh-17" style="edgeStyle=orthogonalEdgeStyle;rounded=0;orthogonalLoop=1;jettySize=auto;html=1;exitX=1;exitY=0.5;exitDx=0;exitDy=0;entryX=0.5;entryY=0;entryDx=0;entryDy=0;" edge="1" parent="1" source="HbhPbqgNAZLozmaxHgkh-12" target="HbhPbqgNAZLozmaxHgkh-16">
          <mxGeometry relative="1" as="geometry" />
        </mxCell>
        <mxCell id="HbhPbqgNAZLozmaxHgkh-12" value="resto = valor 1 % valor2" style="rounded=1;whiteSpace=wrap;html=1;" vertex="1" parent="1">
          <mxGeometry x="320" y="460" width="140" height="40" as="geometry" />
        </mxCell>
        <mxCell id="HbhPbqgNAZLozmaxHgkh-18" style="edgeStyle=orthogonalEdgeStyle;rounded=0;orthogonalLoop=1;jettySize=auto;html=1;exitX=0;exitY=0.5;exitDx=0;exitDy=0;" edge="1" parent="1" source="HbhPbqgNAZLozmaxHgkh-15">
          <mxGeometry relative="1" as="geometry">
            <mxPoint x="510" y="530" as="targetPoint" />
          </mxGeometry>
        </mxCell>
        <mxCell id="HbhPbqgNAZLozmaxHgkh-15" value="resto = valor 2 % valor 1" style="rounded=1;whiteSpace=wrap;html=1;" vertex="1" parent="1">
          <mxGeometry x="550" y="460" width="140" height="40" as="geometry" />
        </mxCell>
        <mxCell id="HbhPbqgNAZLozmaxHgkh-21" style="edgeStyle=orthogonalEdgeStyle;rounded=0;orthogonalLoop=1;jettySize=auto;html=1;exitX=0.5;exitY=1;exitDx=0;exitDy=0;entryX=0.5;entryY=0;entryDx=0;entryDy=0;" edge="1" parent="1" source="HbhPbqgNAZLozmaxHgkh-16" target="HbhPbqgNAZLozmaxHgkh-19">
          <mxGeometry relative="1" as="geometry" />
        </mxCell>
        <mxCell id="HbhPbqgNAZLozmaxHgkh-23" style="edgeStyle=orthogonalEdgeStyle;rounded=0;orthogonalLoop=1;jettySize=auto;html=1;exitX=0;exitY=0.5;exitDx=0;exitDy=0;entryX=-0.008;entryY=0.617;entryDx=0;entryDy=0;entryPerimeter=0;" edge="1" parent="1" source="HbhPbqgNAZLozmaxHgkh-16" target="HpWv4QzWWLvA39jW5zzy-2">
          <mxGeometry relative="1" as="geometry">
            <Array as="points">
              <mxPoint x="400" y="570" />
              <mxPoint x="400" y="797" />
            </Array>
          </mxGeometry>
        </mxCell>
        <mxCell id="HbhPbqgNAZLozmaxHgkh-16" value="resto == 0" style="rhombus;whiteSpace=wrap;html=1;" vertex="1" parent="1">
          <mxGeometry x="470" y="530" width="80" height="80" as="geometry" />
        </mxCell>
        <mxCell id="HbhPbqgNAZLozmaxHgkh-19" value="É divisor!" style="shape=document;whiteSpace=wrap;html=1;boundedLbl=1;" vertex="1" parent="1">
          <mxGeometry x="470" y="660" width="80" height="60" as="geometry" />
        </mxCell>
        <mxCell id="HbhPbqgNAZLozmaxHgkh-22" value="Sim" style="text;html=1;align=center;verticalAlign=middle;resizable=0;points=[];autosize=1;strokeColor=none;fillColor=none;" vertex="1" parent="1">
          <mxGeometry x="510" y="610" width="40" height="30" as="geometry" />
        </mxCell>
        <mxCell id="HbhPbqgNAZLozmaxHgkh-24" value="Não" style="text;html=1;align=center;verticalAlign=middle;resizable=0;points=[];autosize=1;strokeColor=none;fillColor=none;" vertex="1" parent="1">
          <mxGeometry x="400" y="610" width="50" height="30" as="geometry" />
        </mxCell>
        <mxCell id="HbhPbqgNAZLozmaxHgkh-25" value="" style="endArrow=classic;html=1;rounded=0;exitX=0.513;exitY=0.85;exitDx=0;exitDy=0;exitPerimeter=0;entryX=0.5;entryY=0;entryDx=0;entryDy=0;" edge="1" parent="1" source="HbhPbqgNAZLozmaxHgkh-19" target="HpWv4QzWWLvA39jW5zzy-2">
          <mxGeometry width="50" height="50" relative="1" as="geometry">
            <mxPoint x="390" y="480" as="sourcePoint" />
            <mxPoint x="440" y="430" as="targetPoint" />
          </mxGeometry>
        </mxCell>
      </root>
    </mxGraphModel>
  </diagram>
</mxfile>
